<?xml version="1.0" encoding="utf-8"?>
<!-- Generator: Adobe Illustrator 24.1.2, SVG Export Plug-In . SVG Version: 6.00 Build 0)  -->
<svg version="1.1" id="Layer_1" xmlns="http://www.w3.org/2000/svg" xmlns:xlink="http://www.w3.org/1999/xlink" x="0px" y="0px"
	 viewBox="0 0 56.7 56.7" style="enable-background:new 0 0 56.7 56.7;" xml:space="preserve">
<style type="text/css">
	.st0{fill:#FFFFFF;}
</style>
<g>
	<g>
		<path class="st0" d="M56.1,27.2c-0.5-0.6-12.6-13.8-27.8-13.8C13.2,13.5,1,26.7,0.5,27.2c-0.6,0.6-0.6,1.6,0,2.2
			C1,30,13.2,43.2,28.3,43.2S55.6,30,56.1,29.4C56.7,28.8,56.7,27.9,56.1,27.2z M28.3,39.9c-6.4,0-11.6-5.2-11.6-11.6
			c0-6.4,5.2-11.6,11.6-11.6c6.4,0,11.6,5.2,11.6,11.6C39.9,34.7,34.7,39.9,28.3,39.9z"/>
	</g>
</g>
<g>
	<g>
		<path class="st0" d="M29.7,25.8c0-1.3,0.6-2.5,1.6-3.2c-0.9-0.5-1.9-0.7-2.9-0.7c-3.6,0-6.5,2.9-6.5,6.5c0,3.6,2.9,6.5,6.5,6.5
			c3.2,0,5.9-2.3,6.4-5.4C32.2,30.3,29.7,28.3,29.7,25.8z"/>
	</g>
</g>
</svg>
